<mxfile host="app.diagrams.net" agent="Mozilla/5.0 (Macintosh; Intel Mac OS X 10_15_7) AppleWebKit/537.36 (KHTML, like Gecko) Chrome/127.0.0.0 Safari/537.36" version="24.7.7">
  <diagram name="Page-1" id="v1OuHaZvqD6vgpaEa2tz">
    <mxGraphModel dx="913" dy="971" grid="1" gridSize="10" guides="1" tooltips="1" connect="1" arrows="1" fold="1" page="1" pageScale="1" pageWidth="827" pageHeight="1169" math="0" shadow="0">
      <root>
        <mxCell id="0" />
        <mxCell id="1" parent="0" />
        <mxCell id="GZQC4EJjGHKg_0S9MYAc-4" value="Triggers" style="edgeStyle=orthogonalEdgeStyle;rounded=0;orthogonalLoop=1;jettySize=auto;html=1;curved=1;" edge="1" parent="1" source="GZQC4EJjGHKg_0S9MYAc-2" target="GZQC4EJjGHKg_0S9MYAc-3">
          <mxGeometry relative="1" as="geometry" />
        </mxCell>
        <mxCell id="GZQC4EJjGHKg_0S9MYAc-2" value="n8n Workflow Engine" style="rounded=0;whiteSpace=wrap;html=1;" vertex="1" parent="1">
          <mxGeometry x="100" y="470" width="120" height="60" as="geometry" />
        </mxCell>
        <mxCell id="GZQC4EJjGHKg_0S9MYAc-14" style="edgeStyle=orthogonalEdgeStyle;rounded=0;orthogonalLoop=1;jettySize=auto;html=1;" edge="1" parent="1" source="GZQC4EJjGHKg_0S9MYAc-3" target="GZQC4EJjGHKg_0S9MYAc-12">
          <mxGeometry relative="1" as="geometry" />
        </mxCell>
        <mxCell id="GZQC4EJjGHKg_0S9MYAc-3" value="Event Identification" style="rounded=0;whiteSpace=wrap;html=1;" vertex="1" parent="1">
          <mxGeometry x="170" y="620" width="120" height="60" as="geometry" />
        </mxCell>
        <mxCell id="GZQC4EJjGHKg_0S9MYAc-7" value="Monitoring" style="edgeStyle=orthogonalEdgeStyle;rounded=0;orthogonalLoop=1;jettySize=auto;html=1;entryX=0.75;entryY=0;entryDx=0;entryDy=0;curved=1;" edge="1" parent="1" source="GZQC4EJjGHKg_0S9MYAc-5" target="GZQC4EJjGHKg_0S9MYAc-3">
          <mxGeometry relative="1" as="geometry" />
        </mxCell>
        <mxCell id="GZQC4EJjGHKg_0S9MYAc-5" value="Weather API" style="rounded=0;whiteSpace=wrap;html=1;" vertex="1" parent="1">
          <mxGeometry x="294" y="470" width="120" height="60" as="geometry" />
        </mxCell>
        <mxCell id="GZQC4EJjGHKg_0S9MYAc-10" style="edgeStyle=orthogonalEdgeStyle;rounded=0;orthogonalLoop=1;jettySize=auto;html=1;entryX=1;entryY=0;entryDx=0;entryDy=0;curved=1;exitX=0.5;exitY=1;exitDx=0;exitDy=0;" edge="1" parent="1" source="GZQC4EJjGHKg_0S9MYAc-6" target="GZQC4EJjGHKg_0S9MYAc-3">
          <mxGeometry relative="1" as="geometry">
            <mxPoint x="530" y="560" as="sourcePoint" />
            <mxPoint x="350" y="680" as="targetPoint" />
          </mxGeometry>
        </mxCell>
        <mxCell id="GZQC4EJjGHKg_0S9MYAc-6" value="Calendar API" style="rounded=0;whiteSpace=wrap;html=1;" vertex="1" parent="1">
          <mxGeometry x="470" y="470" width="120" height="60" as="geometry" />
        </mxCell>
        <mxCell id="GZQC4EJjGHKg_0S9MYAc-11" style="edgeStyle=orthogonalEdgeStyle;rounded=0;orthogonalLoop=1;jettySize=auto;html=1;entryX=1;entryY=0.5;entryDx=0;entryDy=0;curved=1;" edge="1" parent="1" source="GZQC4EJjGHKg_0S9MYAc-9" target="GZQC4EJjGHKg_0S9MYAc-3">
          <mxGeometry relative="1" as="geometry">
            <Array as="points">
              <mxPoint x="610" y="500" />
              <mxPoint x="610" y="650" />
            </Array>
          </mxGeometry>
        </mxCell>
        <mxCell id="GZQC4EJjGHKg_0S9MYAc-23" style="edgeStyle=orthogonalEdgeStyle;rounded=0;orthogonalLoop=1;jettySize=auto;html=1;exitX=0.5;exitY=1;exitDx=0;exitDy=0;exitPerimeter=0;entryX=1;entryY=0.5;entryDx=0;entryDy=0;curved=1;" edge="1" parent="1" source="GZQC4EJjGHKg_0S9MYAc-9" target="GZQC4EJjGHKg_0S9MYAc-13">
          <mxGeometry relative="1" as="geometry" />
        </mxCell>
        <mxCell id="GZQC4EJjGHKg_0S9MYAc-9" value="Database" style="shape=cylinder3;whiteSpace=wrap;html=1;boundedLbl=1;backgroundOutline=1;size=15;" vertex="1" parent="1">
          <mxGeometry x="680" y="460" width="60" height="80" as="geometry" />
        </mxCell>
        <mxCell id="GZQC4EJjGHKg_0S9MYAc-15" style="edgeStyle=orthogonalEdgeStyle;rounded=0;orthogonalLoop=1;jettySize=auto;html=1;entryX=0.5;entryY=0;entryDx=0;entryDy=0;" edge="1" parent="1" source="GZQC4EJjGHKg_0S9MYAc-12" target="GZQC4EJjGHKg_0S9MYAc-13">
          <mxGeometry relative="1" as="geometry" />
        </mxCell>
        <mxCell id="GZQC4EJjGHKg_0S9MYAc-12" value="LLM Service API" style="rounded=0;whiteSpace=wrap;html=1;" vertex="1" parent="1">
          <mxGeometry x="170" y="750" width="120" height="60" as="geometry" />
        </mxCell>
        <mxCell id="GZQC4EJjGHKg_0S9MYAc-19" value="" style="edgeStyle=orthogonalEdgeStyle;rounded=0;orthogonalLoop=1;jettySize=auto;html=1;" edge="1" parent="1" source="GZQC4EJjGHKg_0S9MYAc-13" target="GZQC4EJjGHKg_0S9MYAc-16">
          <mxGeometry relative="1" as="geometry" />
        </mxCell>
        <mxCell id="GZQC4EJjGHKg_0S9MYAc-13" value="Circular Generation" style="rounded=0;whiteSpace=wrap;html=1;" vertex="1" parent="1">
          <mxGeometry x="170" y="860" width="120" height="60" as="geometry" />
        </mxCell>
        <mxCell id="GZQC4EJjGHKg_0S9MYAc-16" value="Translation Service API" style="rounded=0;whiteSpace=wrap;html=1;" vertex="1" parent="1">
          <mxGeometry x="170" y="960" width="120" height="60" as="geometry" />
        </mxCell>
        <mxCell id="GZQC4EJjGHKg_0S9MYAc-18" style="edgeStyle=orthogonalEdgeStyle;rounded=0;orthogonalLoop=1;jettySize=auto;html=1;entryX=1;entryY=0;entryDx=0;entryDy=0;curved=1;" edge="1" parent="1" source="GZQC4EJjGHKg_0S9MYAc-17" target="GZQC4EJjGHKg_0S9MYAc-13">
          <mxGeometry relative="1" as="geometry">
            <Array as="points">
              <mxPoint x="370" y="710" />
              <mxPoint x="370" y="840" />
              <mxPoint x="290" y="840" />
            </Array>
          </mxGeometry>
        </mxCell>
        <mxCell id="GZQC4EJjGHKg_0S9MYAc-21" style="edgeStyle=orthogonalEdgeStyle;rounded=0;orthogonalLoop=1;jettySize=auto;html=1;curved=1;" edge="1" parent="1" source="GZQC4EJjGHKg_0S9MYAc-17" target="GZQC4EJjGHKg_0S9MYAc-20">
          <mxGeometry relative="1" as="geometry" />
        </mxCell>
        <mxCell id="GZQC4EJjGHKg_0S9MYAc-17" value="File Storage" style="rounded=0;whiteSpace=wrap;html=1;" vertex="1" parent="1">
          <mxGeometry x="470" y="680" width="120" height="60" as="geometry" />
        </mxCell>
        <mxCell id="GZQC4EJjGHKg_0S9MYAc-20" value="Approval Process" style="rounded=0;whiteSpace=wrap;html=1;" vertex="1" parent="1">
          <mxGeometry x="400" y="960" width="120" height="60" as="geometry" />
        </mxCell>
      </root>
    </mxGraphModel>
  </diagram>
</mxfile>
